<svg xmlns="http://www.w3.org/2000/svg" xmlns:xlink="http://www.w3.org/1999/xlink" xmlns:lucid="lucid" width="988.03" height="540.5"><g transform="translate(-79.5 140.5)" lucid:page-tab-id="0_0"><path d="M0-500h1500V500H0z" fill="#fff"/><path d="M80 86a6 6 0 0 1 6-6h308a6 6 0 0 1 6 6v308a6 6 0 0 1-6 6H86a6 6 0 0 1-6-6z" fill="#248814" fill-opacity=".13"/><path d="M80 80h56v56H80V80z" stroke="#fff" stroke-opacity="0" fill="#248814"/><path d="M123.38 102.18c-.15-.17-.34-.25-.56-.25h-5.15v-5.58c-.03-2.54-.97-4.7-2.84-6.4-1.9-1.84-4.15-2.75-6.77-2.75-2.65 0-4.9.83-6.8 2.62-1.9 1.7-2.87 3.87-2.9 6.4v5.67l-5.15-.02c-.24 0-.43.1-.58.25-.16.17-.22.34-.22.6V128c0 .43.34.8.8.8h29.6c.46 0 .8-.37.8-.8v-25.28c0-.2-.06-.38-.22-.54zm-23.46-5.9c.03-2.13.8-3.88 2.37-5.3 1.6-1.5 3.52-2.2 5.73-2.2 2.22 0 4.12.75 5.7 2.25 1.54 1.4 2.32 3.2 2.32 5.32v5.58H99.9zm22.1 30.94H93.98v-23.7h28z" stroke="#fff" stroke-opacity="0" fill="#fff"/><path d="M107.2 117.3v6.25h1.6v-6.23c2.13-.4 3.62-2.2 3.63-4.35 0-2.43-1.97-4.4-4.4-4.43-2.2-.03-4.06 1.5-4.44 3.68-.42 2.4 1.2 4.68 3.6 5.1zm.82-7.15c.78 0 1.44.27 2 .82.54.56.82 1.22.8 2 .03 1.55-1.2 2.8-2.74 2.82h-.06c-1.56.1-2.92-1.06-3.04-2.62-.12-1.56 1.05-2.93 2.6-3.03.16-.02.28-.02.44 0z" stroke="#fff" stroke-opacity="0" fill="#fff"/><use xlink:href="#a" transform="matrix(1,0,0,1,151,100) translate(0 14.4)"/><use xlink:href="#b" transform="matrix(1,0,0,1,151,100) translate(53.900000000000006 14.4)"/><path d="M480 160h160v160H480V160z" stroke="#fff" stroke-opacity="0" fill="#693cc5"/><path d="M578.43 289.43l-3.8-2c2.15-4.02 3.58-7.64 4.85-12.06l4.1 1.2c-1.35 4.73-2.87 8.54-5.15 12.86zm3.97-39.05c-.76-12.55-4.3-23-11.24-33.44l3.55-2.3c7.4 11.04 11.16 22.18 11.97 35.44zm-28.15-51.5c-3.25-2.42-6.2-4.22-9.85-6.03l1.95-3.8V189c3.9 1.9 7 3.82 10.48 6.43zM571.73 255.8c-7.08-7.04-14.42-11.65-23.83-14.96l1.34-4.04c10 3.5 17.84 8.4 25.37 15.9zM589.3 281.26c-.78-2.13-1.68-4.1-2.65-6.08l3.82-1.9c1.1 2.2 1.95 4.1 2.83 6.4z" stroke="#fff" stroke-opacity="0" fill="#fff"/><path d="M577.2 290.45l-1.35-4.03c5.38-1.8 9.68-4.12 14.15-7.62l2.62 3.37c-4.88 3.8-9.54 6.3-15.4 8.28zM509.4 238.93l-.98-4.14c5-1.23 9.3-1.8 14.44-1.9l.1 4.26c-4.8.1-8.88.63-13.57 1.77zM544.38 225.37l-3.58-2.34c3.3-5.35 6.75-9.47 11.46-13.64l2.8 3.2c-4.38 3.9-7.6 7.76-10.68 12.77zM576.1 200.06l-1.44-4c3.38-1.27 6.33-2.1 9.87-2.82l.8 4.26c-3.3.63-6.07 1.4-9.22 2.56zM533.86 285.87c-3.66-8.5-5.34-16.33-5.48-25.6.08-3.57.48-6.6 1.32-10.06l.48-2.3 4.27.83-.47 2.35c-.8 3.16-1.16 5.93-1.24 9.2.1 8.7 1.65 16.06 5.07 24.07z" stroke="#fff" stroke-opacity="0" fill="#fff"/><path d="M560 293.33c-29.44 0-53.33-23.92-53.33-53.3 0-1.17 0-2.13.1-3.3 1.4-22.75 16.1-41.34 37.98-47.85 14.4-4.28 28.26-2.78 41.27 4.6 25.7 14.4 34.88 46.88 20.48 72.62-3.63 6.5-7.9 11.53-13.86 16.13-9.82 7.47-20.27 11.1-32.64 11.1zm0-102.42c-5.02 0-9.28.65-13.98 2.14-20.15 6.1-33.7 23.07-34.98 44 0 1.07-.1 2.03-.1 3 0 27.02 21.96 49.02 49.06 49.02 5.65 0 10.45-.75 15.78-2.67 5.44-1.82 9.7-4.07 14.2-7.6 12.47-9.6 19.08-23.06 19.08-38.76 0-27.13-21.97-49.13-49.06-49.13z" stroke="#fff" stroke-opacity="0" fill="#fff"/><path d="M565.18 215.32c-5.2 0-9.45-4.24-9.45-9.45 0-5.22 4.24-9.45 9.45-9.45 5.22 0 9.46 4.23 9.46 9.45v.02c0 5.2-4.22 9.42-9.44 9.42h-.02zm0-14.6c-2.85 0-5.17 2.3-5.17 5.17 0 2.86 2.33 5.16 5.18 5.16 2.86 0 5.18-2.3 5.18-5.17s-2.32-5.2-5.18-5.2zM536.1 245.08c-5.23 0-9.47-4.24-9.47-9.45 0-5.22 4.24-9.45 9.46-9.45 5.2 0 9.44 4.23 9.44 9.45-.02 5.2-4.24 9.43-9.45 9.45zm0-14.63c-2.87 0-5.2 2.32-5.2 5.18 0 2.85 2.33 5.18 5.2 5.18 2.84 0 5.16-2.32 5.16-5.17v-.04c0-2.88-2.32-5.2-5.17-5.2zM583 272.43c-5.22.02-9.46-4.22-9.48-9.44 0-5.22 4.22-9.46 9.44-9.47 5.2-.02 9.45 4.2 9.47 9.43v.04c0 5.2-4.22 9.43-9.43 9.43zm0-14.6h-.02c-2.86 0-5.18 2.3-5.18 5.17s2.32 5.17 5.18 5.17c2.85 0 5.17-2.3 5.17-5.18 0-2.86-2.3-5.18-5.15-5.18z" stroke="#fff" stroke-opacity="0" fill="#fff"/><use xlink:href="#c" transform="matrix(1,0,0,1,450,329) translate(24.537037037037038 17.77777777777778)"/><path d="M619.16-93.32c.48.48.84 1.2.84 1.92v22.8c0 .72-.36 1.44-.84 1.92-.6.6-1.32.84-2.04.84l-7.2-.48c-1.2 4.2-2.88 8.16-4.92 11.88l5.4 4.8c.48.6.84 1.32.84 2.04s-.24 1.44-.72 2.04l-16.2 16.08c-.48.48-1.2.84-1.92.72-.72 0-1.44-.36-2.04-.84l-4.8-5.4c-3.72 2.16-7.68 3.72-11.88 4.92l.48 7.2c0 .72-.24 1.44-.84 2.04-.48.48-1.2.84-1.92.84h-22.8c-.72 0-1.44-.36-1.92-.84-.6-.6-.84-1.32-.84-2.04l.48-7.2c-4.2-1.2-8.16-2.88-11.88-4.92l-4.8 5.4c-.6.48-1.32.84-2.04.84-.72.12-1.44-.24-2.04-.72l-16.08-16.08c-.48-.6-.72-1.32-.72-2.04s.36-1.44.84-2.04l5.4-4.8c-2.04-3.72-3.72-7.68-4.92-11.88l-7.2.48c-.72 0-1.44-.24-2.04-.84-.48-.48-.84-1.2-.84-1.92v-22.8c0-.72.36-1.44.84-1.92.6-.6 1.32-.84 2.04-.84l7.32.48c1.08-4.2 2.76-8.16 4.92-11.88l-5.52-4.8c-.48-.6-.84-1.32-.84-2.04s.24-1.44.72-1.92l16.08-16.2c.6-.48 1.32-.72 2.04-.72s1.44.36 2.04.84l4.8 5.52c3.72-2.16 7.68-3.84 11.88-4.92l-.48-7.32c0-.72.24-1.44.84-2.04.48-.48 1.2-.84 1.92-.84h22.8c.72 0 1.44.36 1.92.84.6.6.84 1.32.84 2.04l-.48 7.32c4.2 1.08 8.16 2.76 11.88 4.92l4.8-5.52c.6-.48 1.32-.84 2.04-.84s1.44.24 1.92.72l16.2 16.2c.48.48.72 1.2.72 1.92s-.36 1.44-.84 2.04l-5.52 4.8c2.16 3.72 3.84 7.68 5.04 11.88l7.2-.48c.72 0 1.44.24 2.04.84zm-4.56 21.84v-17.04l-6.72.36c-1.2.12-2.52-.84-2.76-2.04-1.2-5.16-3.24-9.96-6-14.4-.72-1.2-.48-2.64.48-3.6l4.92-4.32-12-12-4.44 4.92c-.84.96-2.28 1.2-3.48.48-.24-.24-.6-.36-.84-.48-2.04.48-4.08 1.2-6.12 2.04-.84.24-1.56.6-2.28.84l-1.92-5.16c.72-.24 1.56-.48 2.28-.84.24-.12.6-.24.96-.36-2.04-.84-4.2-1.56-6.48-2.04-1.32-.24-2.16-1.44-2.04-2.76l.36-6.72h-17.04l.36 6.72c.12.6-.12 1.08-.36 1.56 1.92 1.2 3.96 2.52 6 4.08l-3.36 4.32c-3.12-2.4-6.6-4.44-9.12-5.76-3.36 1.2-6.6 2.64-9.6 4.56-1.2.72-2.64.48-3.48-.48l-4.44-4.92-12 12 4.92 4.44c.96.84 1.2 2.28.48 3.48-2.76 4.44-4.8 9.24-6 14.4-.24 1.32-1.56 2.16-2.76 2.04l-6.72-.36v17.04l6.72-.36c1.2-.12 2.52.72 2.76 2.04 1.2 5.16 3.12 10.08 6 14.52.72 1.08.48 2.52-.48 3.48l-4.92 4.32 12 12 4.32-4.92c.36-.36.72-.6 1.2-.72-2.16-6.72-3.36-13.8-3.36-19.8 0-3.6.6-6.48 1.2-9.6l.48-2.16 5.4 1.08-.48 2.28c-.6 2.88-1.2 5.4-1.2 8.4 0 6.84 1.8 14.88 4.68 22.44 3.24 1.56 6.6 2.88 10.08 3.6 1.32.36 2.16 1.44 2.04 2.88l-.36 6.6h17.04l-.36-6.6c-.12-1.32.72-2.52 2.04-2.88.96-.24 1.92-.48 2.76-.72 1.92-3.6 3.48-7.56 4.56-11.4l5.28 1.44c-.72 2.4-1.56 4.8-2.52 7.08 1.56-.72 3-1.44 4.44-2.4.24-.12.48-.24.72-.24 0-2.64-1.08-5.04-1.08-5.04l4.8-2.52c.12.24 2.76 5.64 1.32 10.92l2.04 2.28 12-12-4.92-4.32c-.96-.96-1.2-2.4-.48-3.48 2.88-4.56 4.8-9.36 6-14.52.24-1.32 1.56-2.16 2.76-2.04zm-49.8-30.72c-5.4 0-9.84-4.32-9.84-9.84 0-5.4 4.44-9.72 9.84-9.72 5.52 0 9.84 4.32 9.84 9.72 0 5.52-4.32 9.84-9.84 9.84zm-27.24 8.28c5.4 0 9.84 4.44 9.84 9.84 0 5.4-4.44 9.84-9.84 9.84-5.4 0-9.84-4.44-9.84-9.84 0-5.4 4.44-9.84 9.84-9.84zm44.04 25.68c5.4 0 9.84 4.32 9.84 9.84 0 5.4-4.44 9.84-9.84 9.84-5.52 0-9.84-4.44-9.84-9.84 0-5.52 4.32-9.84 9.84-9.84zm-7.2-36c6.72 10.32 10.56 21.6 11.28 33.72l-5.4.24c-.72-11.04-4.2-21.48-10.44-30.96zm-.24 35.64l-3.72 3.96c-7.08-6.72-14.04-11.16-22.08-13.92l1.8-5.16c8.76 3 16.44 7.8 24 15.12zm-28.2-24.72l-4.56-3c3.6-5.64 6.84-9.36 10.92-12.96l3.48 4.2c-3.6 3.12-6.48 6.6-9.84 11.76zm18.84-23.04c-2.4 0-4.32 1.92-4.32 4.32 0 2.52 1.92 4.44 4.32 4.44 2.52 0 4.44-1.92 4.44-4.44 0-2.4-1.92-4.32-4.44-4.32zm-27.24 36.6c2.4 0 4.44-1.92 4.44-4.32 0-2.4-2.04-4.44-4.44-4.44-2.4 0-4.32 2.04-4.32 4.44 0 2.4 1.92 4.32 4.32 4.32zm44.04 25.68c2.4 0 4.32-1.92 4.32-4.32 0-2.52-1.92-4.44-4.32-4.44-2.52 0-4.44 1.92-4.44 4.44 0 2.4 1.92 4.32 4.44 4.32z" stroke="#000" stroke-opacity="0" fill="#4d27aa"/><path d="M820 180h120v120H820V180z" stroke="#fff" stroke-opacity="0" stroke-width="2" fill="#3b48cc"/><path d="M900.4 244.78l-10.6 10.55c2-.56 3.65-1.2 5.5-2.24 1.1.63 1.68 1.67 1.9 2.87 0 2.96-6.2 6.16-15.4 7.43-3.05.4-5.55.56-8.6.56h-1.58c-12.95-.23-22.42-4.3-22.42-8 .17-1.2.82-2.15 1.9-2.87 5 2.8 13.18 4.47 22.1 4.47h.17l.92-3.2h-1.1c-8.8 0-16.98-1.76-21.28-4.47-1.74-1.12-2.72-2.4-2.72-3.44v-7.44c4.9 3.76 14.64 5.68 24 5.68 1.25 0 2.5 0 3.76-.08l.92-3.2c-1.63.08-3.1.16-4.68.16-13.7 0-24-4.23-24-8 .17-1.27.82-2.23 1.9-2.87 4.42 2.5 11.22 4 18.9 4.4l.1-3.2c-7.56-.4-14.42-2-18.18-4.47-1.74-1.03-2.66-2.3-2.72-3.43v-7.36c4.9 3.76 14.64 5.68 24 5.68h.33l1.74-3.2h-2.07c-13.7 0-24-4.16-24-8 0-3.75 10.3-8 24-8 4.85 0 8.98.5 13.72 1.6h8.8c-4.83-2.94-13.1-4.78-22.52-4.78-13.17 0-27.2 3.9-27.2 11.2V224c.1 1.9.92 3.5 2.44 4.7-1.52 1.3-2.34 2.9-2.45 4.8v12.8c.1 2 .92 3.6 2.44 4.88-1.52 1.2-2.34 2.8-2.45 4.8v13.1c.43 7.04 14.2 10.8 27.2 10.8s26.78-3.76 27.2-10.88V255.88c-.04-1.9-.9-3.6-2.44-4.78 1.53-1.2 2.34-2.88 2.45-4.8zm-3.2 23.98c0 3.76-10.28 8-24 8-13.7 0-24-4.16-24-8v-7.35c4.9 3.68 14.64 5.68 24 5.68s19.1-2 24-5.67z" stroke="#fff" stroke-opacity="0" stroke-width="2" fill="#fff"/><path d="M856 224.03c0 1.1-.9 2-2 2s-2-.9-2-2 .9-2 2-2 2 .9 2 2zM856 246.43c0 1.1-.9 2-2 2s-2-.9-2-2 .9-2 2-2 2 .9 2 2zM856 268.83c0 1.1-.9 2-2 2s-2-.9-2-2 .9-2 2-2 2 .9 2 2zM877.2 262.37c-.3 0-.53-.06-.82-.22-.64-.38-.92-1.14-.72-1.85l9-29.95h-9.08c-.88.06-1.6-.65-1.6-1.58 0-.27.04-.54.2-.76l9.58-19.2c.28-.56.8-.88 1.45-.88H906c.9-.06 1.62.65 1.66 1.52.04.22 0 .38-.04.6l-4.13 12.25h8.97c.88.05 1.6.75 1.6 1.63 0 .43-.16.76-.44 1.08l-35.2 36.82c-.32.38-.72.55-1.24.55zm1-35.18h8.6c.53 0 .97.2 1.3.6.27.43.4.92.23 1.4l-7.7 25.6 28.03-29.24h-7.46c-.88 0-1.64-.65-1.68-1.53 0-.2 0-.43.08-.6l4.1-12.3h-17.6z" stroke="#fff" stroke-opacity="0" stroke-width="2" fill="#fff"/><use xlink:href="#d" transform="matrix(1,0,0,1,790,309) translate(-97.46913580246908 17.77777777777778)"/><path d="M180 180h120v120H180V180z" stroke="#000" stroke-opacity="0" fill="#ed7100"/><path d="M222.08 278.98h-18.63l20.57-43 9.4 19.14-11.34 23.86zm3.32-47.13c-.24-.5-.8-.84-1.38-.84-.56 0-1.13.35-1.38.85l-22.92 47.97c-.24.5-.24 1 .08 1.5.25.43.73.68 1.3.68h21.95c.57 0 1.05-.34 1.3-.84l12.06-25.37c.18-.43.18-.93 0-1.27l-11-22.68zm52.16 47.13H259l-29.63-62.16c-.25-.5-.8-.84-1.38-.84H215.9v-14.96h23.74l29.56 62.16c.24.5.73.84 1.3.84h7.04v14.96zm1.46-17.98h-7.53l-29.58-62.16c-.24-.5-.73-.84-1.3-.84H214.4c-.8 0-1.45.67-1.45 1.5v18c0 .4.08.74.4 1.08.24.25.65.42 1.05.42h12.64l29.73 62.16c.24.5.8.84 1.37.84h20.9c.9 0 1.54-.67 1.54-1.5v-18c0-.83-.65-1.5-1.54-1.5z" stroke="#000" stroke-opacity="0" fill="#fff"/><use xlink:href="#e" transform="matrix(1,0,0,1,150,309) translate(54.55 14.4)"/><path d="M384.9 240.47h-84.4v-.94h84.4zm78.72 0h-43.2v-.94h43.2z" stroke="#3a414a" stroke-width=".05" fill="#3a414a"/><path d="M300.5 240.47h-.5v-.94h.5z" fill="#3a414a"/><path stroke="#3a414a" stroke-width=".05" fill="#3a414a"/><path d="M478.38 240l-14.26 4.63v-9.26z" fill="#3a414a"/><path d="M479.92 240l-16.28 5.3v-10.6zm-15.33 3.98l12.25-3.98-12.26-3.98z" stroke="#3a414a" stroke-width=".05" fill="#3a414a"/><use xlink:href="#f" transform="matrix(1,0,0,1,384.9135802469136,229.33333333333334) translate(0 14.222222222222223)"/><path d="M460.48 113.98l.06.88.2.85.34.8.45.75.56.66.65.57.74.45.8.33.84.2.88.08h88l1 .07.98.24.94.4.87.52.78.66.66.77.53.86.4.94.23 1 .08.98v33.52h-.96v-33.48l-.06-.88-.2-.85-.34-.8-.45-.75-.56-.66-.65-.57-.74-.45-.8-.33-.84-.2-.88-.08h-88l-1-.07-.98-.24-.94-.4-.87-.52-.78-.66-.66-.77-.53-.86-.4-.94-.23-1-.08-.98V52h.96zm23.14-193.5h-17.6l-.88.06-.85.2-.8.34-.75.45-.66.56-.57.65-.45.74-.33.8-.2.84-.07.88V-12h-.96v-62.02l.08-1 .24-.98.4-.94.52-.87.66-.78.77-.66.86-.53.94-.4 1-.23.98-.07h17.64z" stroke="#3a414a" stroke-width=".05" fill="#3a414a"/><path d="M560.48 160h-.96v-.5h.96z" fill="#3a414a"/><path stroke="#3a414a" stroke-width=".05" fill="#3a414a"/><path d="M498.38-80l-14.26 4.64v-9.28z" fill="#3a414a"/><path d="M499.92-80l-16.28 5.3v-10.6zm-15.33 3.98L496.84-80l-12.26-3.98z" stroke="#3a414a" stroke-width=".05" fill="#3a414a"/><use xlink:href="#g" transform="matrix(1,0,0,1,364.51851851851853,-12) translate(0 14.222222222222223)"/><use xlink:href="#h" transform="matrix(1,0,0,1,364.51851851851853,-12) translate(0 35.55555555555556)"/><use xlink:href="#i" transform="matrix(1,0,0,1,364.51851851851853,-12) translate(0 56.88888888888889)"/><path d="M660.48 114.02l-.08 1-.24.98-.4.94-.52.87-.66.78-.77.66-.86.53-.94.4-1 .23-.98.07h-88l-.88.07-.85.2-.8.34-.75.45-.66.56-.57.65-.45.74-.33.8-.2.84-.07.88v17.6h-.96v-17.64l.08-1 .24-.98.4-.94.52-.87.66-.78.77-.66.86-.53.94-.4 1-.23.98-.07h88l.88-.07.85-.2.8-.34.75-.45.66-.56.57-.65.45-.74.33-.8.2-.84.07-.88V91.33h.96zM655-80.4l1 .24.94.4.87.52.78.66.66.77.53.86.4.94.23 1 .08.98v122.7h-.96V-74l-.06-.88-.2-.85-.34-.8-.45-.75-.56-.66-.65-.57-.74-.45-.8-.33-.84-.2-.88-.08H620.5v-.94h33.52z" stroke="#3a414a" stroke-width=".05" fill="#3a414a"/><path d="M620.5-79.53h-.5v-.94h.5z" fill="#3a414a"/><path stroke="#3a414a" stroke-width=".05" fill="#3a414a"/><path d="M560 158.38l-4.63-14.26h9.26z" fill="#3a414a"/><path d="M560 159.92l-5.3-16.28h10.6zm-3.98-15.33l3.98 12.25 3.98-12.26z" stroke="#3a414a" stroke-width=".05" fill="#3a414a"/><use xlink:href="#j" transform="matrix(1,0,0,1,571.3333333333333,48.666666666666664) translate(0 14.222222222222223)"/><use xlink:href="#k" transform="matrix(1,0,0,1,571.3333333333333,48.666666666666664) translate(0 35.55555555555556)"/><path d="M724.9 240.47h-84.4v-.94h84.4zm78.72 0h-43.2v-.94h43.2z" stroke="#3a414a" stroke-width=".05" fill="#3a414a"/><path d="M640.5 240.47h-.5v-.94h.5z" fill="#3a414a"/><path stroke="#3a414a" stroke-width=".05" fill="#3a414a"/><path d="M818.38 240l-14.26 4.63v-9.26z" fill="#3a414a"/><path d="M819.92 240l-16.28 5.3v-10.6zm-15.33 3.98l12.25-3.98-12.26-3.98z" stroke="#3a414a" stroke-width=".05" fill="#3a414a"/><g><use xlink:href="#l" transform="matrix(1,0,0,1,724.9135802469135,229.33333333333334) translate(0 14.222222222222223)"/></g><defs><path fill="#248814" d="M30-248c87 1 191-15 191 75 0 78-77 80-158 76V0H30v-248zm33 125c57 0 124 11 124-50 0-59-68-47-124-48v98" id="m"/><path fill="#248814" d="M84 4C-5 8 30-112 23-190h32v120c0 31 7 50 39 49 72-2 45-101 50-169h31l1 190h-30c-1-10 1-25-2-33-11 22-28 36-60 37" id="n"/><path fill="#248814" d="M115-194c53 0 69 39 70 98 0 66-23 100-70 100C84 3 66-7 56-30L54 0H23l1-261h32v101c10-23 28-34 59-34zm-8 174c40 0 45-34 45-75 0-40-5-75-45-74-42 0-51 32-51 76 0 43 10 73 51 73" id="o"/><path fill="#248814" d="M24 0v-261h32V0H24" id="p"/><path fill="#248814" d="M24-231v-30h32v30H24zM24 0v-190h32V0H24" id="q"/><path fill="#248814" d="M96-169c-40 0-48 33-48 73s9 75 48 75c24 0 41-14 43-38l32 2c-6 37-31 61-74 61-59 0-76-41-82-99-10-93 101-131 147-64 4 7 5 14 7 22l-32 3c-4-21-16-35-41-35" id="r"/><g id="a"><use transform="matrix(0.05,0,0,0.05,0,0)" xlink:href="#m"/><use transform="matrix(0.05,0,0,0.05,12,0)" xlink:href="#n"/><use transform="matrix(0.05,0,0,0.05,22,0)" xlink:href="#o"/><use transform="matrix(0.05,0,0,0.05,32,0)" xlink:href="#p"/><use transform="matrix(0.05,0,0,0.05,35.95,0)" xlink:href="#q"/><use transform="matrix(0.05,0,0,0.05,39.900000000000006,0)" xlink:href="#r"/></g><path fill="#248814" d="M185-189c-5-48-123-54-124 2 14 75 158 14 163 119 3 78-121 87-175 55-17-10-28-26-33-46l33-7c5 56 141 63 141-1 0-78-155-14-162-118-5-82 145-84 179-34 5 7 8 16 11 25" id="s"/><path fill="#248814" d="M117-194c89-4 53 116 60 194h-32v-121c0-31-8-49-39-48C34-167 62-67 57 0H25l-1-190h30c1 10-1 24 2 32 11-22 29-35 61-36" id="t"/><path fill="#248814" d="M100-194c63 0 86 42 84 106H49c0 40 14 67 53 68 26 1 43-12 49-29l28 8c-11 28-37 45-77 45C44 4 14-33 15-96c1-61 26-98 85-98zm52 81c6-60-76-77-97-28-3 7-6 17-6 28h103" id="u"/><path fill="#248814" d="M59-47c-2 24 18 29 38 22v24C64 9 27 4 27-40v-127H5v-23h24l9-43h21v43h35v23H59v120" id="v"/><g id="b"><use transform="matrix(0.05,0,0,0.05,0,0)" xlink:href="#s"/><use transform="matrix(0.05,0,0,0.05,12,0)" xlink:href="#n"/><use transform="matrix(0.05,0,0,0.05,22,0)" xlink:href="#o"/><use transform="matrix(0.05,0,0,0.05,32,0)" xlink:href="#t"/><use transform="matrix(0.05,0,0,0.05,42,0)" xlink:href="#u"/><use transform="matrix(0.05,0,0,0.05,52,0)" xlink:href="#v"/></g><path d="M210-169c-67 3-38 105-44 169h-31v-121c0-29-5-50-35-48C34-165 62-65 56 0H25l-1-190h30c1 10-1 24 2 32 10-44 99-50 107 0 11-21 27-35 58-36 85-2 47 119 55 194h-31v-121c0-29-5-49-35-48" id="w"/><path d="M179-190L93 31C79 59 56 82 12 73V49c39 6 53-20 64-50L1-190h34L92-34l54-156h33" id="x"/><path d="M24-231v-30h32v30H24zM24 0v-190h32V0H24" id="y"/><path d="M115-194c55 1 70 41 70 98S169 2 115 4C84 4 66-9 55-30l1 105H24l-1-265h31l2 30c10-21 28-34 59-34zm-8 174c40 0 45-34 45-75s-6-73-45-74c-42 0-51 32-51 76 0 43 10 73 51 73" id="z"/><path d="M108 0H70L1-190h34L89-25l56-165h34" id="A"/><path d="M110-160c48 1 74 30 74 79 0 53-28 85-80 85-65 0-83-55-86-122-5-90 50-162 133-122 14 7 22 21 27 39l-31 6c-5-40-67-38-82-6-9 19-15 44-15 74 11-20 30-34 60-33zm-7 138c34 0 49-23 49-58s-16-56-50-56c-29 0-50 16-49 49 1 36 15 65 50 65" id="B"/><path d="M114-163C36-179 61-72 57 0H25l-1-190h30c1 12-1 29 2 39 6-27 23-49 58-41v29" id="C"/><path d="M100-194c62-1 85 37 85 99 1 63-27 99-86 99S16-35 15-95c0-66 28-99 85-99zM99-20c44 1 53-31 53-75 0-43-8-75-51-75s-53 32-53 75 10 74 51 75" id="D"/><path d="M141 0L90-78 38 0H4l68-98-65-92h35l48 74 47-74h35l-64 92 68 98h-35" id="E"/><path d="M33 0v-38h34V0H33" id="F"/><path d="M96-169c-40 0-48 33-48 73s9 75 48 75c24 0 41-14 43-38l32 2c-6 37-31 61-74 61-59 0-76-41-82-99-10-93 101-131 147-64 4 7 5 14 7 22l-32 3c-4-21-16-35-41-35" id="G"/><g id="c"><use transform="matrix(0.06172839506172839,0,0,0.06172839506172839,0,0)" xlink:href="#w"/><use transform="matrix(0.06172839506172839,0,0,0.06172839506172839,18.456790123456788,0)" xlink:href="#x"/><use transform="matrix(0.06172839506172839,0,0,0.06172839506172839,29.5679012345679,0)" xlink:href="#y"/><use transform="matrix(0.06172839506172839,0,0,0.06172839506172839,34.44444444444444,0)" xlink:href="#z"/><use transform="matrix(0.06172839506172839,0,0,0.06172839506172839,46.79012345679012,0)" xlink:href="#A"/><use transform="matrix(0.06172839506172839,0,0,0.06172839506172839,57.90123456790123,0)" xlink:href="#B"/><use transform="matrix(0.06172839506172839,0,0,0.06172839506172839,70.24691358024691,0)" xlink:href="#z"/><use transform="matrix(0.06172839506172839,0,0,0.06172839506172839,82.5925925925926,0)" xlink:href="#C"/><use transform="matrix(0.06172839506172839,0,0,0.06172839506172839,89.93827160493828,0)" xlink:href="#D"/><use transform="matrix(0.06172839506172839,0,0,0.06172839506172839,102.28395061728396,0)" xlink:href="#E"/><use transform="matrix(0.06172839506172839,0,0,0.06172839506172839,113.39506172839508,0)" xlink:href="#x"/><use transform="matrix(0.06172839506172839,0,0,0.06172839506172839,122.83950617283952,0)" xlink:href="#F"/><use transform="matrix(0.06172839506172839,0,0,0.06172839506172839,129.01234567901236,0)" xlink:href="#G"/><use transform="matrix(0.06172839506172839,0,0,0.06172839506172839,140.12345679012347,0)" xlink:href="#D"/><use transform="matrix(0.06172839506172839,0,0,0.06172839506172839,152.46913580246914,0)" xlink:href="#w"/></g><path d="M85-194c31 0 48 13 60 33l-1-100h32l1 261h-30c-2-10 0-23-3-31C134-8 116 4 85 4 32 4 16-35 15-94c0-66 23-100 70-100zm9 24c-40 0-46 34-46 75 0 40 6 74 45 74 42 0 51-32 51-76 0-42-9-74-50-73" id="H"/><path d="M117-194c89-4 53 116 60 194h-32v-121c0-31-8-49-39-48C34-167 62-67 57 0H25l-1-190h30c1 10-1 24 2 32 11-22 29-35 61-36" id="I"/><path d="M141-36C126-15 110 5 73 4 37 3 15-17 15-53c-1-64 63-63 125-63 3-35-9-54-41-54-24 1-41 7-42 31l-33-3c5-37 33-52 76-52 45 0 72 20 72 64v82c-1 20 7 32 28 27v20c-31 9-61-2-59-35zM48-53c0 20 12 33 32 33 41-3 63-29 60-74-43 2-92-5-92 41" id="J"/><path d="M115-194c53 0 69 39 70 98 0 66-23 100-70 100C84 3 66-7 56-30L54 0H23l1-261h32v101c10-23 28-34 59-34zm-8 174c40 0 45-34 45-75 0-40-5-75-45-74-42 0-51 32-51 76 0 43 10 73 51 73" id="K"/><path d="M84 4C-5 8 30-112 23-190h32v120c0 31 7 50 39 49 72-2 45-101 50-169h31l1 190h-30c-1-10 1-25-2-33-11 22-28 36-60 37" id="L"/><path d="M135-143c-3-34-86-38-87 0 15 53 115 12 119 90S17 21 10-45l28-5c4 36 97 45 98 0-10-56-113-15-118-90-4-57 82-63 122-42 12 7 21 19 24 35" id="M"/><path d="M16-82v-28h88v28H16" id="N"/><path d="M100-194c63 0 86 42 84 106H49c0 40 14 67 53 68 26 1 43-12 49-29l28 8c-11 28-37 45-77 45C44 4 14-33 15-96c1-61 26-98 85-98zm52 81c6-60-76-77-97-28-3 7-6 17-6 28h103" id="O"/><path d="M59-47c-2 24 18 29 38 22v24C64 9 27 4 27-40v-127H5v-23h24l9-43h21v43h35v23H59v120" id="P"/><path d="M27 0v-27h64v-190l-56 39v-29l58-41h29v221h61V0H27" id="Q"/><path d="M9 0v-24l116-142H16v-24h144v24L44-24h123V0H9" id="R"/><path d="M206 0h-36l-40-164L89 0H53L-1-190h32L70-26l43-164h34l41 164 42-164h31" id="S"/><g id="d"><use transform="matrix(0.06172839506172839,0,0,0.06172839506172839,0,0)" xlink:href="#H"/><use transform="matrix(0.06172839506172839,0,0,0.06172839506172839,12.345679012345679,0)" xlink:href="#x"/><use transform="matrix(0.06172839506172839,0,0,0.06172839506172839,23.45679012345679,0)" xlink:href="#I"/><use transform="matrix(0.06172839506172839,0,0,0.06172839506172839,35.80246913580247,0)" xlink:href="#J"/><use transform="matrix(0.06172839506172839,0,0,0.06172839506172839,48.148148148148145,0)" xlink:href="#w"/><use transform="matrix(0.06172839506172839,0,0,0.06172839506172839,66.60493827160494,0)" xlink:href="#D"/><use transform="matrix(0.06172839506172839,0,0,0.06172839506172839,78.95061728395062,0)" xlink:href="#H"/><use transform="matrix(0.06172839506172839,0,0,0.06172839506172839,91.2962962962963,0)" xlink:href="#K"/><use transform="matrix(0.06172839506172839,0,0,0.06172839506172839,103.64197530864199,0)" xlink:href="#F"/><use transform="matrix(0.06172839506172839,0,0,0.06172839506172839,109.81481481481482,0)" xlink:href="#L"/><use transform="matrix(0.06172839506172839,0,0,0.06172839506172839,122.16049382716051,0)" xlink:href="#M"/><use transform="matrix(0.06172839506172839,0,0,0.06172839506172839,133.27160493827162,0)" xlink:href="#N"/><use transform="matrix(0.06172839506172839,0,0,0.06172839506172839,140.6172839506173,0)" xlink:href="#O"/><use transform="matrix(0.06172839506172839,0,0,0.06172839506172839,152.96296296296296,0)" xlink:href="#J"/><use transform="matrix(0.06172839506172839,0,0,0.06172839506172839,165.30864197530863,0)" xlink:href="#M"/><use transform="matrix(0.06172839506172839,0,0,0.06172839506172839,176.41975308641975,0)" xlink:href="#P"/><use transform="matrix(0.06172839506172839,0,0,0.06172839506172839,182.59259259259258,0)" xlink:href="#N"/><use transform="matrix(0.06172839506172839,0,0,0.06172839506172839,189.93827160493825,0)" xlink:href="#Q"/><use transform="matrix(0.06172839506172839,0,0,0.06172839506172839,202.28395061728392,0)" xlink:href="#F"/><use transform="matrix(0.06172839506172839,0,0,0.06172839506172839,208.45679012345676,0)" xlink:href="#J"/><use transform="matrix(0.06172839506172839,0,0,0.06172839506172839,220.80246913580243,0)" xlink:href="#w"/><use transform="matrix(0.06172839506172839,0,0,0.06172839506172839,239.2592592592592,0)" xlink:href="#J"/><use transform="matrix(0.06172839506172839,0,0,0.06172839506172839,251.60493827160488,0)" xlink:href="#R"/><use transform="matrix(0.06172839506172839,0,0,0.06172839506172839,262.716049382716,0)" xlink:href="#D"/><use transform="matrix(0.06172839506172839,0,0,0.06172839506172839,275.06172839506166,0)" xlink:href="#I"/><use transform="matrix(0.06172839506172839,0,0,0.06172839506172839,287.40740740740733,0)" xlink:href="#J"/><use transform="matrix(0.06172839506172839,0,0,0.06172839506172839,299.753086419753,0)" xlink:href="#S"/><use transform="matrix(0.06172839506172839,0,0,0.06172839506172839,315.74074074074065,0)" xlink:href="#M"/><use transform="matrix(0.06172839506172839,0,0,0.06172839506172839,326.85185185185173,0)" xlink:href="#F"/><use transform="matrix(0.06172839506172839,0,0,0.06172839506172839,333.0246913580246,0)" xlink:href="#G"/><use transform="matrix(0.06172839506172839,0,0,0.06172839506172839,344.1358024691357,0)" xlink:href="#D"/><use transform="matrix(0.06172839506172839,0,0,0.06172839506172839,356.48148148148135,0)" xlink:href="#w"/></g><g id="e"><use transform="matrix(0.05,0,0,0.05,0,0)" xlink:href="#x"/><use transform="matrix(0.05,0,0,0.05,9,0)" xlink:href="#D"/><use transform="matrix(0.05,0,0,0.05,19,0)" xlink:href="#L"/><use transform="matrix(0.05,0,0,0.05,29,0)" xlink:href="#C"/><use transform="matrix(0.05,0,0,0.05,34.95,0)" xlink:href="#N"/><use transform="matrix(0.05,0,0,0.05,40.900000000000006,0)" xlink:href="#J"/><use transform="matrix(0.05,0,0,0.05,50.900000000000006,0)" xlink:href="#z"/><use transform="matrix(0.05,0,0,0.05,60.900000000000006,0)" xlink:href="#z"/></g><path fill="#333" d="M25-224v-37h50v37H25zM25 0v-190h50V0H25" id="T"/><path fill="#333" d="M135-194c53 0 70 44 70 98 0 56-19 98-73 100-31 1-45-17-59-34 3 33 2 69 2 105H25l-1-265h48c2 10 0 23 3 31 11-24 29-35 60-35zM114-30c33 0 39-31 40-66 0-38-9-64-40-64-56 0-55 130 0 130" id="U"/><path fill="#333" d="M128 0H69L1-190h53L99-40l48-150h52" id="V"/><path fill="#333" d="M115-159c48 0 72 30 72 78 0 54-30 85-83 85-64 0-91-50-91-122 0-98 58-163 141-120 15 8 21 24 27 44l-47 6c-5-31-48-31-61-4-7 14-11 33-11 60 9-17 28-27 53-27zM102-35c24 0 36-20 36-45s-11-43-37-43c-23 0-36 14-36 38 0 27 11 50 37 50" id="W"/><g id="f"><use transform="matrix(0.04938271604938272,0,0,0.04938271604938272,0,0)" xlink:href="#T"/><use transform="matrix(0.04938271604938272,0,0,0.04938271604938272,4.938271604938272,0)" xlink:href="#U"/><use transform="matrix(0.04938271604938272,0,0,0.04938271604938272,15.753086419753087,0)" xlink:href="#V"/><use transform="matrix(0.04938271604938272,0,0,0.04938271604938272,25.629629629629633,0)" xlink:href="#W"/></g><path fill="#333" d="M88-194c31-1 46 15 58 34l-1-101h50l1 261h-48c-2-10 0-23-3-31C134-8 116 4 84 4 32 4 16-41 15-95c0-56 19-97 73-99zm17 164c33 0 40-30 41-66 1-37-9-64-41-64s-38 30-39 65c0 43 13 65 39 65" id="X"/><path fill="#333" d="M123 10C108 53 80 86 19 72V37c35 8 53-11 59-39L3-190h52l48 148c12-52 28-100 44-148h51" id="Y"/><path fill="#333" d="M135-194c87-1 58 113 63 194h-50c-7-57 23-157-34-157-59 0-34 97-39 157H25l-1-190h47c2 12-1 28 3 38 12-26 28-41 61-42" id="Z"/><path fill="#333" d="M133-34C117-15 103 5 69 4 32 3 11-16 11-54c-1-60 55-63 116-61 1-26-3-47-28-47-18 1-26 9-28 27l-52-2c7-38 36-58 82-57s74 22 75 68l1 82c-1 14 12 18 25 15v27c-30 8-71 5-69-32zm-48 3c29 0 43-24 42-57-32 0-66-3-65 30 0 17 8 27 23 27" id="aa"/><path fill="#333" d="M220-157c-53 9-28 100-34 157h-49v-107c1-27-5-49-29-50C55-147 81-57 75 0H25l-1-190h47c2 12-1 28 3 38 10-53 101-56 108 0 13-22 24-43 59-42 82 1 51 116 57 194h-49v-107c-1-25-5-48-29-50" id="ab"/><path fill="#333" d="M110-194c64 0 96 36 96 99 0 64-35 99-97 99-61 0-95-36-95-99 0-62 34-99 96-99zm-1 164c35 0 45-28 45-65 0-40-10-65-43-65-34 0-45 26-45 65 0 36 10 65 43 65" id="ac"/><path fill="#333" d="M135-194c52 0 70 43 70 98 0 56-19 99-73 100-30 1-46-15-58-35L72 0H24l1-261h50v104c11-23 29-37 60-37zM114-30c31 0 40-27 40-66 0-37-7-63-39-63s-41 28-41 65c0 36 8 64 40 64" id="ad"/><path fill="#333" d="M14-72v-43h91v43H14" id="ae"/><path fill="#333" d="M85 4C-2 5 27-109 22-190h50c7 57-23 150 33 157 60-5 35-97 40-157h50l1 190h-47c-2-12 1-28-3-38-12 25-28 42-61 42" id="af"/><path fill="#333" d="M137-138c1-29-70-34-71-4 15 46 118 7 119 86 1 83-164 76-172 9l43-7c4 19 20 25 44 25 33 8 57-30 24-41C81-84 22-81 20-136c-2-80 154-74 161-7" id="ag"/><path fill="#333" d="M185-48c-13 30-37 53-82 52C43 2 14-33 14-96s30-98 90-98c62 0 83 45 84 108H66c0 31 8 55 39 56 18 0 30-7 34-22zm-45-69c5-46-57-63-70-21-2 6-4 13-4 21h74" id="ah"/><path fill="#333" d="M115-3C79 11 28 4 28-45v-112H4v-33h27l15-45h31v45h36v33H77v99c-1 23 16 31 38 25v30" id="ai"/><path fill="#333" d="M23 0v-37h61v-169l-59 37v-38l62-41h46v211h57V0H23" id="aj"/><g id="g"><use transform="matrix(0.04938271604938272,0,0,0.04938271604938272,0,0)" xlink:href="#X"/><use transform="matrix(0.04938271604938272,0,0,0.04938271604938272,10.814814814814815,0)" xlink:href="#Y"/><use transform="matrix(0.04938271604938272,0,0,0.04938271604938272,20.69135802469136,0)" xlink:href="#Z"/><use transform="matrix(0.04938271604938272,0,0,0.04938271604938272,31.506172839506174,0)" xlink:href="#aa"/><use transform="matrix(0.04938271604938272,0,0,0.04938271604938272,41.38271604938272,0)" xlink:href="#ab"/><use transform="matrix(0.04938271604938272,0,0,0.04938271604938272,57.18518518518519,0)" xlink:href="#ac"/><use transform="matrix(0.04938271604938272,0,0,0.04938271604938272,68,0)" xlink:href="#X"/><use transform="matrix(0.04938271604938272,0,0,0.04938271604938272,78.81481481481481,0)" xlink:href="#ad"/><use transform="matrix(0.04938271604938272,0,0,0.04938271604938272,89.62962962962962,0)" xlink:href="#ae"/><use transform="matrix(0.04938271604938272,0,0,0.04938271604938272,95.50617283950616,0)" xlink:href="#ae"/><use transform="matrix(0.04938271604938272,0,0,0.04938271604938272,101.38271604938271,0)" xlink:href="#af"/><use transform="matrix(0.04938271604938272,0,0,0.04938271604938272,112.19753086419752,0)" xlink:href="#ag"/><use transform="matrix(0.04938271604938272,0,0,0.04938271604938272,122.07407407407406,0)" xlink:href="#ae"/><use transform="matrix(0.04938271604938272,0,0,0.04938271604938272,127.9506172839506,0)" xlink:href="#ah"/><use transform="matrix(0.04938271604938272,0,0,0.04938271604938272,137.82716049382714,0)" xlink:href="#aa"/><use transform="matrix(0.04938271604938272,0,0,0.04938271604938272,147.7037037037037,0)" xlink:href="#ag"/><use transform="matrix(0.04938271604938272,0,0,0.04938271604938272,157.58024691358025,0)" xlink:href="#ai"/><use transform="matrix(0.04938271604938272,0,0,0.04938271604938272,163.45679012345678,0)" xlink:href="#ae"/><use transform="matrix(0.04938271604938272,0,0,0.04938271604938272,169.33333333333331,0)" xlink:href="#aj"/><use transform="matrix(0.04938271604938272,0,0,0.04938271604938272,179.20987654320987,0)" xlink:href="#ae"/><use transform="matrix(0.04938271604938272,0,0,0.04938271604938272,185.0864197530864,0)" xlink:href="#ae"/></g><path fill="#333" d="M12 0v-35l95-120H19v-35h142v35L67-36h103V0H12" id="ak"/><path fill="#333" d="M231 0h-52l-39-155L100 0H48L-1-190h46L77-45c9-52 24-97 36-145h53l37 145 32-145h46" id="al"/><path fill="#333" d="M190-63c-7 42-38 67-86 67-59 0-84-38-90-98-12-110 154-137 174-36l-49 2c-2-19-15-32-35-32-30 0-35 28-38 64-6 74 65 87 74 30" id="am"/><path fill="#333" d="M24 0v-54h51V0H24" id="an"/><g id="h"><use transform="matrix(0.04938271604938272,0,0,0.04938271604938272,0,0)" xlink:href="#aa"/><use transform="matrix(0.04938271604938272,0,0,0.04938271604938272,9.876543209876544,0)" xlink:href="#ab"/><use transform="matrix(0.04938271604938272,0,0,0.04938271604938272,25.679012345679016,0)" xlink:href="#aa"/><use transform="matrix(0.04938271604938272,0,0,0.04938271604938272,35.55555555555556,0)" xlink:href="#ak"/><use transform="matrix(0.04938271604938272,0,0,0.04938271604938272,44.44444444444444,0)" xlink:href="#ac"/><use transform="matrix(0.04938271604938272,0,0,0.04938271604938272,55.25925925925927,0)" xlink:href="#Z"/><use transform="matrix(0.04938271604938272,0,0,0.04938271604938272,66.07407407407408,0)" xlink:href="#aa"/><use transform="matrix(0.04938271604938272,0,0,0.04938271604938272,75.95061728395062,0)" xlink:href="#al"/><use transform="matrix(0.04938271604938272,0,0,0.04938271604938272,89.77777777777779,0)" xlink:href="#ag"/><use transform="matrix(0.04938271604938272,0,0,0.04938271604938272,99.65432098765433,0)" xlink:href="#ae"/><use transform="matrix(0.04938271604938272,0,0,0.04938271604938272,105.53086419753087,0)" xlink:href="#ae"/><use transform="matrix(0.04938271604938272,0,0,0.04938271604938272,111.40740740740742,0)" xlink:href="#am"/><use transform="matrix(0.04938271604938272,0,0,0.04938271604938272,121.28395061728396,0)" xlink:href="#ac"/><use transform="matrix(0.04938271604938272,0,0,0.04938271604938272,132.0987654320988,0)" xlink:href="#ab"/><use transform="matrix(0.04938271604938272,0,0,0.04938271604938272,147.90123456790127,0)" xlink:href="#an"/></g><path fill="#333" d="M135-150c-39-12-60 13-60 57V0H25l-1-190h47c2 13-1 29 3 40 6-28 27-53 61-41v41" id="ao"/><path fill="#333" d="M144 0l-44-69L55 0H2l70-98-66-92h53l41 62 40-62h54l-67 91 71 99h-54" id="ap"/><g id="i"><use transform="matrix(0.04938271604938272,0,0,0.04938271604938272,0,0)" xlink:href="#ab"/><use transform="matrix(0.04938271604938272,0,0,0.04938271604938272,15.80246913580247,0)" xlink:href="#Y"/><use transform="matrix(0.04938271604938272,0,0,0.04938271604938272,25.679012345679016,0)" xlink:href="#T"/><use transform="matrix(0.04938271604938272,0,0,0.04938271604938272,30.617283950617285,0)" xlink:href="#U"/><use transform="matrix(0.04938271604938272,0,0,0.04938271604938272,41.4320987654321,0)" xlink:href="#V"/><use transform="matrix(0.04938271604938272,0,0,0.04938271604938272,51.308641975308646,0)" xlink:href="#W"/><use transform="matrix(0.04938271604938272,0,0,0.04938271604938272,61.18518518518519,0)" xlink:href="#U"/><use transform="matrix(0.04938271604938272,0,0,0.04938271604938272,72,0)" xlink:href="#ao"/><use transform="matrix(0.04938271604938272,0,0,0.04938271604938272,78.91358024691358,0)" xlink:href="#ac"/><use transform="matrix(0.04938271604938272,0,0,0.04938271604938272,89.72839506172839,0)" xlink:href="#ap"/><use transform="matrix(0.04938271604938272,0,0,0.04938271604938272,99.60493827160494,0)" xlink:href="#Y"/><use transform="matrix(0.04938271604938272,0,0,0.04938271604938272,108.14814814814815,0)" xlink:href="#an"/><use transform="matrix(0.04938271604938272,0,0,0.04938271604938272,113.08641975308643,0)" xlink:href="#am"/><use transform="matrix(0.04938271604938272,0,0,0.04938271604938272,122.96296296296298,0)" xlink:href="#ac"/><use transform="matrix(0.04938271604938272,0,0,0.04938271604938272,133.7777777777778,0)" xlink:href="#ab"/></g><g id="j"><use transform="matrix(0.04938271604938272,0,0,0.04938271604938272,0,0)" xlink:href="#X"/><use transform="matrix(0.04938271604938272,0,0,0.04938271604938272,10.814814814814815,0)" xlink:href="#Y"/><use transform="matrix(0.04938271604938272,0,0,0.04938271604938272,20.69135802469136,0)" xlink:href="#Z"/><use transform="matrix(0.04938271604938272,0,0,0.04938271604938272,31.506172839506174,0)" xlink:href="#aa"/><use transform="matrix(0.04938271604938272,0,0,0.04938271604938272,41.38271604938272,0)" xlink:href="#ab"/><use transform="matrix(0.04938271604938272,0,0,0.04938271604938272,57.18518518518519,0)" xlink:href="#ac"/><use transform="matrix(0.04938271604938272,0,0,0.04938271604938272,68,0)" xlink:href="#X"/><use transform="matrix(0.04938271604938272,0,0,0.04938271604938272,78.81481481481481,0)" xlink:href="#ad"/><use transform="matrix(0.04938271604938272,0,0,0.04938271604938272,89.62962962962962,0)" xlink:href="#an"/><use transform="matrix(0.04938271604938272,0,0,0.04938271604938272,94.5679012345679,0)" xlink:href="#af"/><use transform="matrix(0.04938271604938272,0,0,0.04938271604938272,105.38271604938271,0)" xlink:href="#ag"/><use transform="matrix(0.04938271604938272,0,0,0.04938271604938272,115.25925925925925,0)" xlink:href="#ae"/><use transform="matrix(0.04938271604938272,0,0,0.04938271604938272,121.1358024691358,0)" xlink:href="#ah"/><use transform="matrix(0.04938271604938272,0,0,0.04938271604938272,131.01234567901236,0)" xlink:href="#aa"/><use transform="matrix(0.04938271604938272,0,0,0.04938271604938272,140.8888888888889,0)" xlink:href="#ag"/><use transform="matrix(0.04938271604938272,0,0,0.04938271604938272,150.76543209876547,0)" xlink:href="#ai"/><use transform="matrix(0.04938271604938272,0,0,0.04938271604938272,156.641975308642,0)" xlink:href="#ae"/><use transform="matrix(0.04938271604938272,0,0,0.04938271604938272,162.51851851851853,0)" xlink:href="#aj"/><use transform="matrix(0.04938271604938272,0,0,0.04938271604938272,172.3950617283951,0)" xlink:href="#an"/></g><g id="k"><use transform="matrix(0.04938271604938272,0,0,0.04938271604938272,0,0)" xlink:href="#aa"/><use transform="matrix(0.04938271604938272,0,0,0.04938271604938272,9.876543209876544,0)" xlink:href="#ab"/><use transform="matrix(0.04938271604938272,0,0,0.04938271604938272,25.679012345679016,0)" xlink:href="#aa"/><use transform="matrix(0.04938271604938272,0,0,0.04938271604938272,35.55555555555556,0)" xlink:href="#ak"/><use transform="matrix(0.04938271604938272,0,0,0.04938271604938272,44.44444444444444,0)" xlink:href="#ac"/><use transform="matrix(0.04938271604938272,0,0,0.04938271604938272,55.25925925925927,0)" xlink:href="#Z"/><use transform="matrix(0.04938271604938272,0,0,0.04938271604938272,66.07407407407408,0)" xlink:href="#aa"/><use transform="matrix(0.04938271604938272,0,0,0.04938271604938272,75.95061728395062,0)" xlink:href="#al"/><use transform="matrix(0.04938271604938272,0,0,0.04938271604938272,89.77777777777779,0)" xlink:href="#ag"/><use transform="matrix(0.04938271604938272,0,0,0.04938271604938272,99.65432098765433,0)" xlink:href="#an"/><use transform="matrix(0.04938271604938272,0,0,0.04938271604938272,104.5925925925926,0)" xlink:href="#am"/><use transform="matrix(0.04938271604938272,0,0,0.04938271604938272,114.46913580246914,0)" xlink:href="#ac"/><use transform="matrix(0.04938271604938272,0,0,0.04938271604938272,125.28395061728396,0)" xlink:href="#ab"/></g><path fill="#333" d="M165-50V0h-47v-50H5v-38l105-160h55v161h33v37h-33zm-47-37l2-116L46-87h72" id="aq"/><g id="l"><use transform="matrix(0.04938271604938272,0,0,0.04938271604938272,0,0)" xlink:href="#T"/><use transform="matrix(0.04938271604938272,0,0,0.04938271604938272,4.938271604938272,0)" xlink:href="#U"/><use transform="matrix(0.04938271604938272,0,0,0.04938271604938272,15.753086419753087,0)" xlink:href="#V"/><use transform="matrix(0.04938271604938272,0,0,0.04938271604938272,25.629629629629633,0)" xlink:href="#aq"/></g></defs></g></svg>